<svg xmlns="http://www.w3.org/2000/svg" viewBox="0 0 512 512">
  <rect width="512" height="512" rx="15%" fill="#00b900"/>
  <path fill="#fff" d="M256 155c-81 0-147 54-147 120 0 34 17 64 43 85 2 1 3 4 3 6l-2 21c0 3 2 5 5 4l27-14c2-1 4-1 5 0 13 4 27 6 42 6 81 0 147-54 147-120s-66-120-123-120zm-61 161h-38c-3 0-5-2-5-5v-77c0-3 2-5 5-5s5 2 5 5v72h33c3 0 5 2 5 5s-2 5-5 5zm22-5v-77c0-3 2-5 5-5s5 2 5 5v77c0 3-2 5-5 5s-5-2-5-5zm85 5h-38c-3 0-5-2-5-5v-77c0-3 2-5 5-5s5 2 5 5v72h33c3 0 5 2 5 5s-2 5-5 5zm54-46l32 44c1 1 1 3 0 4-1 1-2 2-3 2s-2 0-3-1l-32-43v38c0 3-2 5-5 5s-5-2-5-5v-77c0-3 2-5 5-5 2 0 3 1 4 2l32 43v-38c0-3 2-5 5-5s5 2 5 5l-1 76z"/>
</svg>
